Coordinates
version=1
nRows=8
nColumns=40
inDegrees=yes

Units are S.I. units (second, meters, Newtons, ...)
Angles are in degrees.

endheader
time	pelvis_tilt	pelvis_list	pelvis_rotation	pelvis_tx	pelvis_ty	pelvis_tz	hip_flexion_r	hip_adduction_r	hip_rotation_r	knee_angle_r	knee_angle_r_beta	ankle_angle_r	subtalar_angle_r	mtp_angle_r	hip_flexion_l	hip_adduction_l	hip_rotation_l	knee_angle_l	knee_angle_l_beta	ankle_angle_l	subtalar_angle_l	mtp_angle_l	lumbar_extension	lumbar_bending	lumbar_rotation	arm_flex_r	arm_add_r	arm_rot_r	elbow_flex_r	pro_sup_r	wrist_flex_r	wrist_dev_r	arm_flex_l	arm_add_l	arm_rot_l	elbow_flex_l	pro_sup_l	wrist_flex_l	wrist_dev_l
      0.00000000	     -2.75619202	     -1.84139879	      9.13986106	     -0.93697864	      0.88708549	     -0.97663187	     27.34516758	     -2.50702978	    -15.39143585	    -44.36668312	     -0.77434470	      6.91859193	    -15.90572830	     17.40997981	     16.14464302	      2.68067443	      9.99966833	    -29.05713408	     -0.50714266	     11.58110890	      9.35774563	     -1.71881482	     -5.09971723	     -1.06293729	     -6.60364728	     -0.66200352	     -6.20238580	    -10.54713644	     25.39393184	     89.95437384	      0.00000000	      0.00000000	      7.15810563	     12.03934648	     13.14970846	     37.78742857	     89.95437384	      0.00000000	      0.00000000
      0.01000000	     -3.01993679	     -1.74058591	      9.10183730	     -0.93260635	      0.88668751	     -0.97749640	     28.06666680	     -2.70892100	    -15.54509305	    -42.78697353	     -0.74677357	      6.74706261	    -15.51231062	     17.26360960	     16.00593994	      2.52721393	     10.17952669	    -28.93434731	     -0.50499963	     11.77061620	      9.27994379	     -1.71287538	     -4.93724605	     -1.17877893	     -6.72792292	     -0.79018837	     -6.17021507	    -10.70111788	     25.48829199	     89.95437384	      0.00000000	      0.00000000	      7.37049010	     12.11696260	     13.04841201	     38.39682039	     89.95437384	      0.00000000	      0.00000000
      0.02000000	     -3.26098896	     -1.65199631	      9.06050019	     -0.92808605	      0.88623353	     -0.97837104	     28.71092628	     -2.98877449	    -16.01354796	    -41.09425057	     -0.71722998	      6.65855968	    -15.16046892	     17.14122543	     15.83169406	      2.39506591	     10.37667611	    -28.81760010	     -0.50296200	     11.98534983	      9.20393469	     -1.71520807	     -4.79040384	     -1.28486700	     -6.81168184	     -0.92633555	     -6.16547918	    -10.87255985	     25.53806067	     89.95437384	      0.00000000	      0.00000000	      7.55954300	     12.15063710	     12.97921950	     39.06467382	     89.95437384	      0.00000000	      0.00000000
      0.03000000	     -2.93912519	     -2.03083994	      9.32732021	     -0.92315138	      0.88664505	     -0.97909137	     28.43595619	     -2.64605538	    -16.71391747	    -38.82167064	     -0.67756597	      6.23592150	    -14.76466693	     17.27514488	     15.15827561	      2.83975184	     10.11564363	    -28.74194798	     -0.50164163	     12.41038890	      9.06357594	     -1.77969981	     -5.19357909	     -0.78625699	     -7.25223124	     -0.81794429	     -6.02314409	    -11.60352007	     25.42751977	     89.95437384	      0.00000000	      0.00000000	      7.63913561	     12.27891863	     12.84270487	     39.95561025	     89.95437384	      0.00000000	      0.00000000
      0.04000000	     -2.95226031	     -2.11549468	      9.42054648	     -0.91818743	      0.88651196	     -0.97973109	     28.60497527	     -2.67420525	    -17.33505323	    -36.82307726	     -0.64268394	      5.96973224	    -14.42355955	     17.31901600	     14.77273925	      2.98339368	     10.24225164	    -28.64253710	     -0.49990658	     12.62156040	      8.68123256	     -1.84317015	     -5.21381516	     -0.68176918	     -7.47563883	     -0.87539337	     -5.95434759	    -11.90659072	     25.38119674	     89.95437384	      0.00000000	      0.00000000	      7.80086279	     12.32893556	     12.79096332	     40.57163815	     89.95437384	      0.00000000	      0.00000000
      0.05000000	     -3.29044767	     -1.90089174	      9.35920667	     -0.91350743	      0.88578516	     -0.98056902	     29.25998997	     -3.08761875	    -17.78038738	    -35.17628977	     -0.61394208	      5.96531369	    -14.03797414	     17.18390205	     14.69576397	      2.70904502	     10.50372714	    -28.55681677	     -0.49841048	     12.74667479	      8.50757059	     -1.85083207	     -4.96315806	     -0.92059705	     -7.52894359	     -1.07438164	     -5.97600057	    -11.98665070	     25.54695625	     89.95437384	      0.00000000	      0.00000000	      8.00413510	     12.34889028	     12.66898814	     41.06513708	     89.95437384	      0.00000000	      0.00000000
      0.06000000	     -3.12339194	     -2.12733537	      9.59236824	     -0.90833620	      0.88583459	     -0.98118047	     29.08296992	     -2.92618776	    -18.42539432	    -33.03760654	     -0.57661501	      5.77133750	    -13.47630185	     17.19999624	     14.16157775	      2.99808167	     10.31950229	    -28.49645918	     -0.49735704	     12.93818409	      8.04639397	     -1.94419987	     -5.16345630	     -0.60208319	     -7.91850475	     -1.04799582	     -5.88099946	    -12.45678913	     25.44104033	     89.95437384	      0.00000000	      0.00000000	      8.09706925	     12.45497164	     12.50762934	     41.74226890	     89.95437384	      0.00000000	      0.00000000
      0.07000000	     -3.24956236	     -2.14280778	      9.68743919	     -0.90321573	      0.88538734	     -0.98189707	     29.31916533	     -3.01685214	    -18.87445630	    -31.12941420	     -0.54331077	      5.94336953	    -12.96238269	     17.07028510	     13.87631917	      3.02675098	     10.41156212	    -28.40904258	     -0.49583133	     13.29871640	      7.80240046	     -2.03878157	     -5.05559294	     -0.55714081	     -8.09073965	     -1.13419711	     -5.85737758	    -12.79487153	     25.39876142	     89.95437384	      0.00000000	      0.00000000	      8.28057727	     12.50191939	     12.27230060	     42.21559146	     89.95437384	      0.00000000	      0.00000000
